<mxfile host="app.diagrams.net" modified="2024-04-28T07:08:58.664Z" agent="Mozilla/5.0 (Windows NT 10.0; Win64; x64) AppleWebKit/537.36 (KHTML, like Gecko) Chrome/124.0.0.0 Safari/537.36" etag="dj9n6ow2fEnWpdWBx2xX" version="24.3.1" type="device">
  <diagram name="페이지-1" id="1J8IFu0eqVpKYZqFiz5Q">
    <mxGraphModel dx="1434" dy="738" grid="1" gridSize="10" guides="1" tooltips="1" connect="1" arrows="1" fold="1" page="1" pageScale="1" pageWidth="827" pageHeight="400" math="0" shadow="0">
      <root>
        <mxCell id="0" />
        <mxCell id="1" parent="0" />
        <mxCell id="0W5esDZquRjPYmSMwN4K-25" value="" style="edgeStyle=orthogonalEdgeStyle;rounded=0;orthogonalLoop=1;jettySize=auto;html=1;" edge="1" parent="1" source="0W5esDZquRjPYmSMwN4K-21" target="0W5esDZquRjPYmSMwN4K-20">
          <mxGeometry relative="1" as="geometry" />
        </mxCell>
        <mxCell id="0W5esDZquRjPYmSMwN4K-21" value="" style="rounded=1;whiteSpace=wrap;html=1;" vertex="1" parent="1">
          <mxGeometry x="439" y="212.5" width="360" height="120" as="geometry" />
        </mxCell>
        <mxCell id="0W5esDZquRjPYmSMwN4K-6" value="" style="edgeStyle=orthogonalEdgeStyle;rounded=0;orthogonalLoop=1;jettySize=auto;html=1;exitX=1;exitY=0.5;exitDx=0;exitDy=0;" edge="1" parent="1" source="0W5esDZquRjPYmSMwN4K-7" target="0W5esDZquRjPYmSMwN4K-10">
          <mxGeometry relative="1" as="geometry" />
        </mxCell>
        <mxCell id="0W5esDZquRjPYmSMwN4K-7" value="PDF file" style="shape=image;html=1;verticalAlign=top;verticalLabelPosition=bottom;labelBackgroundColor=#ffffff;imageAspect=0;aspect=fixed;image=https://cdn4.iconfinder.com/data/icons/file-extension-names-vol-8/512/24-128.png" vertex="1" parent="1">
          <mxGeometry x="29" y="58" width="80" height="80" as="geometry" />
        </mxCell>
        <mxCell id="0W5esDZquRjPYmSMwN4K-14" value="" style="edgeStyle=orthogonalEdgeStyle;rounded=0;orthogonalLoop=1;jettySize=auto;html=1;" edge="1" parent="1" source="0W5esDZquRjPYmSMwN4K-9" target="0W5esDZquRjPYmSMwN4K-12">
          <mxGeometry relative="1" as="geometry" />
        </mxCell>
        <mxCell id="0W5esDZquRjPYmSMwN4K-9" value="List(Document)" style="html=1;verticalLabelPosition=bottom;align=center;labelBackgroundColor=#ffffff;verticalAlign=top;strokeWidth=2;strokeColor=#0080F0;shadow=0;dashed=0;shape=mxgraph.ios7.icons.documents;" vertex="1" parent="1">
          <mxGeometry x="309" y="62.5" width="60" height="69" as="geometry" />
        </mxCell>
        <mxCell id="0W5esDZquRjPYmSMwN4K-10" value="&lt;div style=&quot;font-family: Menlo, Monaco, &amp;quot;Courier New&amp;quot;, monospace; line-height: 18px; white-space: pre;&quot;&gt;PyPDFLoader&lt;/div&gt;" style="rounded=0;whiteSpace=wrap;html=1;labelBackgroundColor=default;fontColor=default;" vertex="1" parent="1">
          <mxGeometry x="139" y="68" width="120" height="60" as="geometry" />
        </mxCell>
        <mxCell id="0W5esDZquRjPYmSMwN4K-11" style="edgeStyle=orthogonalEdgeStyle;rounded=0;orthogonalLoop=1;jettySize=auto;html=1;exitX=1;exitY=0.5;exitDx=0;exitDy=0;entryX=-0.033;entryY=0.514;entryDx=0;entryDy=0;entryPerimeter=0;" edge="1" parent="1" source="0W5esDZquRjPYmSMwN4K-10" target="0W5esDZquRjPYmSMwN4K-9">
          <mxGeometry relative="1" as="geometry" />
        </mxCell>
        <mxCell id="0W5esDZquRjPYmSMwN4K-12" value="" style="rounded=1;whiteSpace=wrap;html=1;" vertex="1" parent="1">
          <mxGeometry x="439" y="37" width="360" height="120" as="geometry" />
        </mxCell>
        <mxCell id="0W5esDZquRjPYmSMwN4K-15" value="prompt" style="shape=image;html=1;verticalAlign=top;verticalLabelPosition=bottom;labelBackgroundColor=#ffffff;imageAspect=0;aspect=fixed;image=https://cdn0.iconfinder.com/data/icons/business-startup-10/50/38-128.png" vertex="1" parent="1">
          <mxGeometry x="509" y="51.5" width="80" height="80" as="geometry" />
        </mxCell>
        <mxCell id="0W5esDZquRjPYmSMwN4K-17" value="Language Model" style="sketch=0;points=[[0,0,0],[0.25,0,0],[0.5,0,0],[0.75,0,0],[1,0,0],[0,1,0],[0.25,1,0],[0.5,1,0],[0.75,1,0],[1,1,0],[0,0.25,0],[0,0.5,0],[0,0.75,0],[1,0.25,0],[1,0.5,0],[1,0.75,0]];outlineConnect=0;fontColor=#232F3E;fillColor=#01A88D;strokeColor=#ffffff;dashed=0;verticalLabelPosition=bottom;verticalAlign=top;align=center;html=1;fontSize=12;fontStyle=0;aspect=fixed;shape=mxgraph.aws4.resourceIcon;resIcon=mxgraph.aws4.augmented_ai;" vertex="1" parent="1">
          <mxGeometry x="639" y="50" width="78" height="78" as="geometry" />
        </mxCell>
        <mxCell id="0W5esDZquRjPYmSMwN4K-24" value="" style="edgeStyle=orthogonalEdgeStyle;rounded=0;orthogonalLoop=1;jettySize=auto;html=1;" edge="1" parent="1" source="0W5esDZquRjPYmSMwN4K-18" target="0W5esDZquRjPYmSMwN4K-21">
          <mxGeometry relative="1" as="geometry" />
        </mxCell>
        <mxCell id="0W5esDZquRjPYmSMwN4K-18" value="Dcument Cleansing Chain" style="text;html=1;align=center;verticalAlign=middle;whiteSpace=wrap;rounded=0;fontStyle=1" vertex="1" parent="1">
          <mxGeometry x="521.5" y="157" width="195" height="30" as="geometry" />
        </mxCell>
        <mxCell id="0W5esDZquRjPYmSMwN4K-19" value="&lt;div style=&quot;font-family: Menlo, Monaco, &amp;quot;Courier New&amp;quot;, monospace; line-height: 18px; white-space: pre;&quot;&gt;OpenAIEmbeddings&lt;/div&gt;" style="rounded=0;whiteSpace=wrap;html=1;labelBackgroundColor=default;fontColor=default;" vertex="1" parent="1">
          <mxGeometry x="629" y="244.75" width="130" height="55.5" as="geometry" />
        </mxCell>
        <mxCell id="0W5esDZquRjPYmSMwN4K-27" value="" style="edgeStyle=orthogonalEdgeStyle;rounded=0;orthogonalLoop=1;jettySize=auto;html=1;" edge="1" parent="1" source="0W5esDZquRjPYmSMwN4K-20" target="0W5esDZquRjPYmSMwN4K-26">
          <mxGeometry relative="1" as="geometry" />
        </mxCell>
        <mxCell id="0W5esDZquRjPYmSMwN4K-20" value="List(Chunked Docs)" style="html=1;verticalLabelPosition=bottom;align=center;labelBackgroundColor=#ffffff;verticalAlign=top;strokeWidth=2;strokeColor=#0080F0;shadow=0;dashed=0;shape=mxgraph.ios7.icons.documents;" vertex="1" parent="1">
          <mxGeometry x="309" y="238" width="60" height="69" as="geometry" />
        </mxCell>
        <mxCell id="0W5esDZquRjPYmSMwN4K-22" value="&lt;div style=&quot;font-family: Menlo, Monaco, &amp;quot;Courier New&amp;quot;, monospace; line-height: 18px; white-space: pre;&quot;&gt;TextSpliter&lt;/div&gt;" style="rounded=0;whiteSpace=wrap;html=1;labelBackgroundColor=default;fontColor=default;" vertex="1" parent="1">
          <mxGeometry x="469" y="244.75" width="130" height="55.5" as="geometry" />
        </mxCell>
        <mxCell id="0W5esDZquRjPYmSMwN4K-23" value="Semantic Chunker" style="text;html=1;align=center;verticalAlign=middle;whiteSpace=wrap;rounded=0;fontStyle=1" vertex="1" parent="1">
          <mxGeometry x="521.5" y="332.5" width="195" height="30" as="geometry" />
        </mxCell>
        <mxCell id="0W5esDZquRjPYmSMwN4K-26" value="v&lt;span style=&quot;background-color: initial;&quot;&gt;ectorStore&lt;/span&gt;" style="shape=datastore;whiteSpace=wrap;html=1;" vertex="1" parent="1">
          <mxGeometry x="109" y="242.5" width="120" height="60" as="geometry" />
        </mxCell>
      </root>
    </mxGraphModel>
  </diagram>
</mxfile>
